<svg height="30" viewBox="0 0 38 30" width="38" xmlns="http://www.w3.org/2000/svg" xmlns:xlink="http://www.w3.org/1999/xlink"><mask id="a" fill="#fff"><path d="m.0647.098h18.7710041v26.8233009h-18.7710041z" fill="none"/></mask><mask id="b" fill="#fff"><path d="m.8142.1716665h18.7878v26.8283335h-18.7878z" fill="none"/></mask><g fill="#800300" fill-rule="evenodd"><path d="m15.3057 5.7848v-3.068c0-.916.942-1.785 2.293-1.785h.846c.228-.021.395-.224.374-.453-.019-.198-.176-.354-.374-.374h-1.366c-4.287-.025-13.939-.257-13.939 5.474v1.69c0 1.456-.427 2.994-2.619 3.016h-.044c-.228 0-.412.185-.412.411 0 .228.184.412.412.412h.149c2.084.074 2.499 1.646 2.499 3.075v7.396c0 1.766 1.002 2.952 2.495 3.741 1.942 1.059 4.725 1.426 7.254 1.541 1.71.087 3.27.057 4.306.049h1.246c.227 0 .411-.185.41-.412 0-.227-.183-.41-.41-.411h-.823c-.658.018-1.299-.221-1.784-.665l-.038-.038-.034-.037c-.283-.327-.438-.744-.437-1.175v-8.462c0-3.468-3.97-4.53-8.055-4.841h-.277c-.103.02-.203-.047-.225-.149-.02-.104.047-.205.15-.225.025-.006.05-.006.075 0h.06c4.122-.247 8.219-1.22 8.268-4.71" mask="url(#a)" transform="translate(0 -.0976)"/><path d="m4.3682 5.8483v-3.063c0-.914-.946-1.782-2.297-1.782h-.845c-.227 0-.412-.183-.412-.411 0-.227.184-.412.411-.412h.001 1.362c4.287-.029 13.942-.258 13.942 5.474v1.69c0 1.456.423 2.993 2.619 3.016h.041c.228 0 .412.184.412.411s-.184.412-.412.412h-.149c-2.084.074-2.495 1.642-2.495 3.075v7.4c0 1.765-1.003 2.952-2.495 3.741-1.946 1.058-4.726 1.422-7.258 1.541-1.71.086-3.27.056-4.306.049h-1.246c-.228-.022-.395-.225-.374-.454.019-.198.176-.354.374-.374h.83c.659.019 1.299-.22 1.785-.666l.037-.037.038-.041c.282-.325.438-.74.437-1.171v-8.458c0-3.468 3.966-4.531 8.051-4.841h.292c.103-.021.17-.121.149-.225-.014-.075-.074-.134-.149-.149h-.06c-4.134-.25-8.234-1.219-8.283-4.725" mask="url(#b)" transform="translate(18 2.9024)"/></g></svg>